<svg xmlns="http://www.w3.org/2000/svg" width="32" height="32" viewBox="0 0 32 32">
  <path fill="#00A0E9" d="M32 16c0 8.837-7.163 16-16 16-8.836 0-16-7.163-16-16s7.164-16 16-16c8.837 0 16 7.163 16 16zM6.56 15.88h3.12c0.795-1.687 1.535-3.195 1.759-3.619h-4.879v-1.92h6.079v-1.199h-6.079v-2.561h2.479c0 0 0-0.64 0-0.959h-3.919c0 0 0 0.639 0 0.959h2.479v2.561h-5.439v1.199h5.439v1.52h-6.080v1.2h9.599c0 0-1.599 3.279-4.639 6.879 0 0 4.64-1.519 7.359-4.559l1.44 2.4c0 0-3.84 3.678-8.879 5.198 0 0-3.759 1.279-8.799-0.719 0 0-1.279-0.561-1.599-1.6 0 0 7.839 3.439 13.678-1.6 0 0-5.12-3.599-5.12-3.599l-0.599 1.119h-3.359l-0.32 1.44h4.239l-1.76 2.8h1.76l1.76-2.8h11.039v-1.44h-10.399l0.32-0.64 2.079 1.28c0 0 0.481-0.719 0.961-1.439h4.959v-1.92h-10.079z"/>
</svg> 