<svg xmlns="http://www.w3.org/2000/svg" width="32" height="32" viewBox="0 0 32 32">
  <path fill="#09BB07" d="M28.996 21.860c-0.492-0.273-1.091-0.547-1.589-0.547-0.82 0-1.641 0.547-1.969 1.367-0.328 0.82-0.164 1.641 0.328 2.188 0.328 0.328 0.82 0.547 1.313 0.547 0.984 0 1.969-0.82 2.133-1.805 0.164-0.578 0.164-1.201-0.219-1.749zM21.915 16.939c0.656 0 1.313-0.438 1.641-1.094 0.328-0.656 0.164-1.367-0.328-1.859-0.328-0.273-0.82-0.492-1.313-0.492-0.82 0-1.641 0.547-1.969 1.313-0.328 0.82-0.109 1.695 0.492 2.188 0.328 0.164 0.82 0.273 1.477 0.164v-0.219zM16.002 0c-8.821 0-16.002 7.181-16.002 16.002s7.181 16.002 16.002 16.002 16.002-7.181 16.002-16.002-7.181-16.002-16.002-16.002zM12.656 24.102c-0.492 0-0.984 0-1.422-0.109-1.641-0.273-2.953-1.094-3.500-2.461l-0.109-0.219v-0.109h-0.109c-1.258-0.273-2.078-1.422-2.078-2.734 0-1.695 1.258-3.063 2.844-3.336v-0.109c-0.109-0.656-0.273-1.367-0.273-2.078 0-3.063 2.734-5.469 6.062-5.469 2.734 0 5.031 1.477 5.906 3.719h0.219c0.109 0 0.219 0 0.328 0 1.969 0 3.609 1.641 3.609 3.609 0 1.531-0.984 2.844-2.352 3.336l-0.164 0.055v0.109c0 1.422-0.656 2.734-1.805 3.609-0.984 0.656-2.078 0.984-3.336 0.984-0.547 0-1.148-0.109-1.695-0.164-0.656 0.219-1.367 0.328-2.125 0.328v0.039zM22.188 11.526c0.219 0 0.328 0 0.547 0.055 1.969 0.273 3.391 1.969 3.391 3.938 0 1.641-0.984 2.953-2.352 3.609h-0.109l-0.219 0.109v0.109c0 0.109 0 0.328 0 0.492 0.109 0.656 0.328 1.367 0.547 2.023v0.219h-0.164c-0.219 0-0.328 0.109-0.547 0.109-0.711 0.219-1.422 0.328-2.188 0.328-2.734 0-4.922-1.969-4.922-4.484 0-2.461 2.188-4.484 4.922-4.484 0.164 0 0.437 0 0.602 0-0.219-0.656-0.328-1.258-0.328-1.969 0-0.219 0-0.492 0.109-0.711h0.055c0.219 0 0.492 0.055 0.711 0.109v0.164l-0.055 0.383z"/>
</svg> 